<svg xmlns="http://www.w3.org/2000/svg" viewBox="0 0 222.53 196.58"><defs><style>.a{fill:#fff;}</style></defs><path class="a" d="M320.5,338.08c0-83.42,55.77-116.93,96.66-130.29,17.37-5.68,19.85-29.14,4.16-38.52a196.89,196.89,0,0,0-201.64,0c-15.69,9.38-13.21,32.84,4.16,38.52C264.73,221.15,320.5,254.66,320.5,338.08Zm88.13-158.86a8.88,8.88,0,0,1-1.32,16.09A186.61,186.61,0,0,0,383,205.92c-18.91,10-39.76,25.46-55.06,49.28a8.87,8.87,0,0,1-14.9,0c-15.3-23.82-36.15-39.33-55.06-49.28a186.61,186.61,0,0,0-24.3-10.61,8.88,8.88,0,0,1-1.32-16.09,182.29,182.29,0,0,1,176.26,0Z" transform="translate(-209.24 -141.5)"/></svg>