<?xml version="1.0" encoding="utf-8"?>
<!-- Generator: Adobe Illustrator 24.1.1, SVG Export Plug-In . SVG Version: 6.00 Build 0)  -->
<svg version="1.1" id="Layer_1" xmlns="http://www.w3.org/2000/svg" xmlns:xlink="http://www.w3.org/1999/xlink" x="0px" y="0px"
	 viewBox="0 0 512 512" style="enable-background:new 0 0 512 512;" xml:space="preserve">
<style type="text/css">
	.st0{fill:#FFFFFF;}
</style>
<g>
	<path class="st0" d="M6.5,171.2h109.8v330.2H6.5L6.5,171.2z"/>
	<path class="st0" d="M62.1,12C24.5,12,0,36.7,0,69.1c0,31.7,23.8,57,60.6,57h0.7c38.3,0,62.1-25.4,62.1-57
		C122.7,36.7,99.6,12,62.1,12z"/>
	<path class="st0" d="M385.6,163.4c-58.2,0-84.3,32-98.9,54.5v-46.8H177v330.2h109.8V317c0-9.9,0.7-19.7,3.6-26.8
		c7.9-19.7,26-40.1,56.3-40.1c39.7,0,55.6,30.3,55.6,74.7v176.7H512V312.1C512,210.6,457.9,163.4,385.6,163.4z"/>
</g>
</svg>
