<svg xmlns="http://www.w3.org/2000/svg" xmlns:xlink="http://www.w3.org/1999/xlink" viewBox="0 0 1594.9 535.92"><defs><style>.a{fill:url(#a);}.b{fill:url(#b);}</style><linearGradient id="a" x1="-787.35" y1="986.72" x2="934.58" y2="986.72" gradientUnits="userSpaceOnUse"><stop offset="0" stop-color="#6156f9"/><stop offset="1" stop-color="#1a129f"/></linearGradient><linearGradient id="b" x1="1406.65" y1="694.98" x2="1522.41" y2="1127.01" xlink:href="#a"/></defs><path class="a" d="M2324.54,1184.64c-18.9,19.12-42.28,42.69-69.42,70H729.64V913.35c103.9-104.68,201.22-194.93,332.95-194.59h.44c62.37.25,132.46,20.8,214.61,69.73,499.87,297.68,812.63-91.13,1046.9,245.75Z" transform="translate(-729.64 -718.75)"/><path class="b" d="M729.64,1254.68V1015.24c38.14,8.36,81.76,21.41,131.65,40C1344.8,1235.51,1466.8,619,1799.7,891.41c204.47,167.29,388.7,119.89,524.84,142.83v220.44Z" transform="translate(-729.64 -718.75)"/></svg>