<svg xmlns="http://www.w3.org/2000/svg" xmlns:xlink="http://www.w3.org/1999/xlink" viewBox="0 0 1114.64 951.51"><defs><style>.a{fill:url(#a);}.b{fill:#7aa9ff;}.b,.c,.d,.e,.h,.i,.k,.l,.m,.n,.o,.q,.r,.v{fill-rule:evenodd;}.c,.p{fill:#6fa0fd;}.d{fill:#3f79da;}.e{fill:#bedaf7;}.f{fill:#edf7fb;}.g,.n{fill:#aabeeb;}.h,.x{fill:#407adb;}.i,.j{fill:#424b96;}.k{fill:#fdceae;}.l{fill:#f3b898;}.m{fill:#3b70cc;}.o,.t{fill:#b7cdfe;}.q{fill:#5e94ea;}.r{fill:#505bb5;}.s{fill:#3f79dc;}.u,.v{fill:#fff;}.w{fill:#cfd8fc;}</style><linearGradient id="a" x1="-801.2" y1="1081.14" x2="-800.33" y2="1079.77" gradientTransform="matrix(876.04, 0, 0, -699.74, 702404.76, 756538.26)" gradientUnits="userSpaceOnUse"><stop offset="0" stop-color="#6156f9"/><stop offset="1" stop-color="#1a129f"/></linearGradient></defs><path class="a" d="M1115,870.44C1064.35,903.6,991.08,900.38,884.32,747c-199.93-287.16-523.24-2.09-599.77-279.89S-72.26,238.14,18.11,0H1114.94Z" transform="translate(-0.36)"/><path class="b" d="M477.89,932.42H315.74A26.38,26.38,0,0,1,305.15,926c-10.51-10.62-13.7-18.07-13.72-18,0,.35,30.74,9.07,26.88,2.2-3.68-6.37-29.77-6.21-37-15.36-7.22-8.85-15.94-25.06-15.87-25.07-.06.24,22.61,14.52,22.14,7.55-.46-6.46-26.37-17.84-32.07-29-5.68-10.53,22.48,8.49,25.43,5,2.82-2.73-27-22.08-32.91-31.73-6.11-9.16-7.11-27-2.87-23.07s11,10,11,5.93c-.19-3.85-18-28.68-17.84-37-.14-7.78,19,14.32,20.46,11.37,1.19-2.35-21.93-25.2-24.09-38.57-2.37-13-.53-24.14.62-23.94s11.6,17.36,14.06,16.61c2.06-.4-3.39-80.14,34.29-97.18,31.3,20.26,60,72.44,60.17,72.41,2.27-.68,5-16.31,6-16.8s6.6,6.24,10.12,15.1c3.2,8.68-3.39,33.88-.55,34.77,2.38.57,6.14-21.9,10.33-17.37,3.77,4.33,4.3,26.77,7.12,28.68,2.57,1.85,3.67-5.21,4.62-9.42s10.6,4.21,12.2,11.41c1.15,7-3.48,34.7.82,33.6,3.69-1.46,8-26.87,11.86-19.64,3.48,6.86-2.39,28.82,2.83,30.69,4.82,1.61,6.08-18.27,6.27-18.18a187.62,187.62,0,0,1,10.3,16.29c3.19,6.42-7.47,27.43-3.09,31.21,4,3.44,8.4-22.12,8.68-22,0,0,4.24,3.2,9,11.76s-2.47,19.28,2,27.47,12.9-4.81,12.91-4.77C481,878,482.13,910.9,477.89,932.42Z" transform="translate(-0.36)"/><path class="c" d="M477.86,885.8,326.58,944.18a26.49,26.49,0,0,1-12.2-2.18c-13.62-6.13-19.29-11.93-19.29-11.89.16.32,32-2.61,25.87-7.63-5.73-4.62-30,4.93-40-1-9.92-5.65-23.89-17.63-23.84-17.68,0,.25,26.33,5.41,23.38-.93-2.75-5.85-31-7.14-40.35-15.48-9.1-7.78,24-.18,25.51-4.53,1.65-3.56-33.19-10.86-42.12-17.75-9-6.35-16.35-22.6-11-20.49S226.46,850,225,846.17c-1.57-3.52-27.12-20.27-29.95-28.07-2.94-7.21,22.9,6.51,23.17,3.24.27-2.62-29.52-15.62-36.35-27.31-6.88-11.23-9.19-22.34-8-22.56s17.08,12,19.09,10.44c1.78-1.11-32-73.55-3-103,36.5,7.64,82.09,46,82.21,45.89,1.86-1.45-1.26-17-.41-17.85s8.4,3.45,14.88,10.44c6.11,6.94,9,32.83,12,32.63,2.43-.32-2.16-22.64,3.38-19.92,5.09,2.68,13.65,23.43,17,24.19,3.07.8,1.55-6.18.93-10.44s11.31.18,15.36,6.3c3.61,6.16,9.24,33.63,12.86,31.06,2.92-2.69-2.24-27.93,4-22.6,5.72,5.16,8.15,27.75,13.69,27.62C371,786,365,767,365.16,767a184.47,184.47,0,0,1,15.48,11.49c5.28,4.84,2.9,28.28,8.35,30.22,5,1.78-.12-23.66.2-23.61,0,0,5.1,1.46,12.58,7.75s4.63,18.88,11.72,24.92,10.31-9.14,10.33-9.1C461.16,834,474.06,864.19,477.86,885.8Z" transform="translate(-0.36)"/><path class="b" d="M600.12,931.76H784.41a30.25,30.25,0,0,0,12-7.3C808.35,912.39,812,903.91,812,904c0,.41-34.94,10.31-30.55,2.5,4.18-7.24,33.83-7,42-17.45,8.2-10.06,18.11-28.48,18-28.5.06.27-25.7,16.5-25.17,8.58.52-7.34,30-20.28,36.45-32.93,6.45-12-25.55,9.64-28.91,5.64-3.2-3.11,30.75-25.09,37.4-36.06,7-10.42,8.09-30.65,3.27-26.22S851.94,791,851.94,786.3c.22-4.38,20.46-32.59,20.27-42,.16-8.85-21.61,16.27-23.24,12.91-1.36-2.67,24.92-28.64,27.37-43.83,2.7-14.72.6-27.44-.7-27.21s-13.19,19.73-16,18.88c-2.35-.45,3.85-91.09-39-110.44-35.57,23-68.21,82.33-68.38,82.29-2.57-.77-5.63-18.54-6.87-19.09s-7.49,7.09-11.5,17.16c-3.64,9.86,3.86,38.5.63,39.51-2.71.65-7-24.89-11.74-19.74-4.29,4.92-4.88,30.42-8.09,32.6-2.93,2.1-4.17-5.92-5.25-10.7s-11.92,4.83-13.71,13c-1.31,8,4,39.44-.93,38.19-4.2-1.65-9-30.53-13.48-22.32-4,7.8,2.72,32.75-3.21,34.88-5.49,1.83-6.91-20.76-7.13-20.66,0,0-7.82,11-11.72,18.51-3.61,7.29,8.5,31.17,3.52,35.47-4.53,3.91-9.55-25.14-9.87-25,0,0-4.81,3.63-10.16,13.36s2.81,21.91-2.24,31.21-14.66-5.46-14.67-5.42C596.61,870,595.29,907.3,600.12,931.76Z" transform="translate(-0.36)"/><path class="d" d="M855.24,557.23c-17,19.35-30.46,42.55-42.17,65.34A415.61,415.61,0,0,0,771.5,753.28l-2.21-.79A424.49,424.49,0,0,1,809.81,623.9c11.88-23.76,25.87-48,43.53-68C854.31,554.78,856.23,556.11,855.24,557.23Z" transform="translate(-0.36)"/><path class="d" d="M769.88,752.64s-4-21.64-38.66-36C731.22,716.68,741.13,743.44,769.88,752.64Z" transform="translate(-0.36)"/><path class="d" d="M772.52,736.12s-5.07-23.83-45.34-40.33C727.18,695.79,739.19,725.38,772.52,736.12Z" transform="translate(-0.36)"/><path class="d" d="M775.16,723.1s-1.6-24.31-39.09-46.4C736.07,676.7,743.72,707.7,775.16,723.1Z" transform="translate(-0.36)"/><path class="d" d="M780.31,708.77s.94-24.35-34-50.23C746.28,658.51,750.67,690.17,780.31,708.77Z" transform="translate(-0.36)"/><path class="d" d="M785.46,689.27s.46-28.08-41.38-58.91C744.09,630.35,750.08,667,785.46,689.27Z" transform="translate(-0.36)"/><path class="d" d="M792.47,669.76s.51-29.18-42.88-61.15C749.59,608.61,755.77,646.65,792.47,669.76Z" transform="translate(-0.36)"/><path class="d" d="M797.15,653.42s5.14-28.72-32.61-67.19C764.54,586.23,764.58,624.78,797.15,653.42Z" transform="translate(-0.36)"/><path class="d" d="M806.14,632.42s8-25.07-21.15-64C785,568.51,780.44,602.93,806.14,632.42Z" transform="translate(-0.36)"/><path class="d" d="M817.57,612.51s6.26-22.62-21.44-59.29C796.13,553.18,793.34,584.51,817.57,612.51Z" transform="translate(-0.36)"/><path class="d" d="M827.92,592.8s4.32-19.14-20.5-51.74C807.42,541.06,806.38,567.82,827.92,592.8Z" transform="translate(-0.36)"/><path class="d" d="M835.67,582.51s6.09-15.86-10.56-50C825.12,532.57,820.81,555.86,835.67,582.51Z" transform="translate(-0.36)"/><path class="d" d="M844.8,567.93s6.7-13-5.6-38.73A53.31,53.31,0,0,0,844.8,567.93Z" transform="translate(-0.36)"/><path class="d" d="M851.51,559.19S870,556,873.14,529.73C873.15,529.73,852.21,538.36,851.51,559.19Z" transform="translate(-0.36)"/><path class="d" d="M883.3,556.61s-13.67-5.24-37.89,9.78A53.29,53.29,0,0,0,883.3,556.61Z" transform="translate(-0.36)"/><path class="d" d="M769.79,751.14S786.63,737,822.5,748C822.49,748,797.83,762.33,769.79,751.14Z" transform="translate(-0.36)"/><path class="d" d="M775.67,723.27s16.71-17.74,59.68-10.94C835.3,712.33,809.67,731.38,775.67,723.27Z" transform="translate(-0.36)"/><path class="d" d="M779.35,707.33s14.75-19.38,58.2-17.11C837.55,690.22,814.06,711.84,779.35,707.33Z" transform="translate(-0.36)"/><path class="d" d="M784.83,688.19s17.52-22,69.41-19.13C854.23,669.05,826.3,693.51,784.83,688.19Z" transform="translate(-0.36)"/><path class="d" d="M791.89,668.07s18.16-22.83,72-19.9C863.88,648.17,834.91,673.6,791.89,668.07Z" transform="translate(-0.36)"/><path class="d" d="M798,652.25s14.3-25.43,67.9-31.1C865.88,621.15,841.33,650.86,798,652.25Z" transform="translate(-0.36)"/><path class="d" d="M807.27,630.7s12.47-23.19,60.71-29.19C868,601.51,846.34,628.72,807.27,630.7Z" transform="translate(-0.36)"/><path class="d" d="M818.43,610.05s9.57-21.44,54.26-32.11C872.67,577.94,854.9,603.91,818.43,610.05Z" transform="translate(-0.36)"/><path class="d" d="M836,581.79s10.44-13.4,48.26-16.76C884.21,565,866.49,580.75,836,581.79Z" transform="translate(-0.36)"/><path class="d" d="M772,735.94s19.07-15.16,60.63-2.28C832.67,733.66,804.57,748.85,772,735.94Z" transform="translate(-0.36)"/><path class="c" d="M608.86,870.86l171.92,66.35a30.12,30.12,0,0,0,13.86-2.48c15.5-7,21.93-13.56,21.93-13.52-.17.37-36.3-3-29.4-8.67,6.51-5.24,34.11,5.6,45.5-1.15,11.27-6.43,27.15-20,27.09-20.09,0,.28-29.92,6.15-26.57-1.06,3.13-6.66,35.26-8.12,45.86-17.6,10.33-8.84-27.31-.19-29-5.14-1.87-4,37.72-12.35,47.88-20.18,10.24-7.21,18.58-25.68,12.49-23.29s-15.82,6.15-14.13,1.78c1.78-4,30.82-23,34-31.91,3.34-8.2-26,7.39-26.34,3.67-.31-3,33.56-17.74,41.31-31,7.82-12.76,10.45-25.38,9.15-25.63s-19.4,13.65-21.7,11.85c-2-1.26,36.39-83.59,3.4-117.07-41.48,8.68-93.29,52.25-93.43,52.16-2.12-1.66,1.43-19.32.46-20.29s-9.54,3.91-16.9,11.87c-7,7.89-10.27,37.31-13.64,37.09-2.77-.38,2.45-25.74-3.85-22.65-5.77,3-15.51,26.63-19.29,27.49-3.48.91-1.75-7-1-11.87s-12.86.21-17.47,7.17c-4.09,7-10.5,38.22-14.61,35.29-3.33-3.05,2.54-31.74-4.54-25.67-6.5,5.85-9.26,31.53-15.56,31.38-5.78-.27,1-21.86.8-21.84,0,0-11.27,7.5-17.6,13.06-6,5.5-3.29,32.13-9.49,34.34-5.64,2,.15-26.88-.22-26.83,0,0-5.8,1.66-14.3,8.82s-5.27,21.45-13.32,28.31-11.71-10.38-11.74-10.34C627.84,811.93,613.17,846.3,608.86,870.86Z" transform="translate(-0.36)"/><path class="d" d="M271.54,588.14c17,19.35,30.46,42.55,42.17,65.34a415.61,415.61,0,0,1,41.57,130.71l2.21-.8A425.17,425.17,0,0,0,317,654.8c-11.88-23.76-25.87-47.95-43.53-68C272.47,585.69,270.55,587,271.54,588.14Z" transform="translate(-0.36)"/><path class="d" d="M356.9,783.51s4-21.64,38.66-36C395.55,747.59,385.67,774.34,356.9,783.51Z" transform="translate(-0.36)"/><path class="d" d="M354.26,767s5.07-23.83,45.34-40.32C399.6,726.7,387.58,756.28,354.26,767Z" transform="translate(-0.36)"/><path class="d" d="M351.67,754s1.6-24.31,39.09-46.41C390.67,707.6,383.06,738.6,351.67,754Z" transform="translate(-0.36)"/><path class="d" d="M346.47,739.67s-.94-24.34,34-50.23C380.5,689.44,376.13,721.07,346.47,739.67Z" transform="translate(-0.36)"/><path class="d" d="M341.31,720.18s-.46-28.09,41.38-58.92C382.67,661.26,376.67,697.9,341.31,720.18Z" transform="translate(-0.36)"/><path class="d" d="M334.31,700.66s-.51-29.17,42.88-61.15C377.19,639.51,371,677.51,334.31,700.66Z" transform="translate(-0.36)"/><path class="d" d="M329.67,684.33s-5.14-28.72,32.6-67.2C362.23,617.13,362.2,655.68,329.67,684.33Z" transform="translate(-0.36)"/><path class="d" d="M320.67,663.32s-8-25.06,21.15-64C341.79,599.37,346.34,633.84,320.67,663.32Z" transform="translate(-0.36)"/><path class="d" d="M309.21,643.37s-6.26-22.62,21.44-59.29C330.67,584.08,333.44,615.44,309.21,643.37Z" transform="translate(-0.36)"/><path class="d" d="M298.86,623.7s-4.32-19.14,20.5-51.74C319.36,572,320.4,598.73,298.86,623.7Z" transform="translate(-0.36)"/><path class="d" d="M291.1,613.45s-6.09-15.86,10.56-50C301.67,563.51,306,586.76,291.1,613.45Z" transform="translate(-0.36)"/><path class="d" d="M282,598.83s-6.7-13,5.6-38.73A53.31,53.31,0,0,1,282,598.83Z" transform="translate(-0.36)"/><path class="d" d="M275.27,590.09s-18.49-3.24-21.63-29.46C253.67,560.64,274.56,569.26,275.27,590.09Z" transform="translate(-0.36)"/><path class="d" d="M243.48,587.51s13.67-5.24,37.89,9.77A53.28,53.28,0,0,1,243.48,587.51Z" transform="translate(-0.36)"/><path class="d" d="M357,782s-16.83-14.16-52.7-3.15C304.28,778.89,328.94,793.23,357,782Z" transform="translate(-0.36)"/><path class="d" d="M351.16,754.17s-16.71-17.74-59.68-10.94C291.48,743.23,317.1,762.29,351.16,754.17Z" transform="translate(-0.36)"/><path class="d" d="M347.43,738.23s-14.75-19.38-58.2-17.11C289.23,721.12,312.72,742.74,347.43,738.23Z" transform="translate(-0.36)"/><path class="d" d="M342,719.1s-17.51-22-69.4-19.14C272.55,700,300.47,724.42,342,719.1Z" transform="translate(-0.36)"/><path class="d" d="M334.89,699s-18.16-22.83-72-19.91C262.91,679.07,291.87,704.51,334.89,699Z" transform="translate(-0.36)"/><path class="d" d="M328.79,683.15s-14.3-25.43-67.89-31.1C260.9,652.05,285.45,681.76,328.79,683.15Z" transform="translate(-0.36)"/><path class="d" d="M319.51,661.61S307,638.43,258.8,632.42C258.8,632.42,280.45,659.63,319.51,661.61Z" transform="translate(-0.36)"/><path class="d" d="M308.35,641s-9.57-21.43-54.27-32.11C254.08,608.84,271.87,634.81,308.35,641Z" transform="translate(-0.36)"/><path class="d" d="M290.83,612.69s-10.44-13.4-48.26-16.75C242.57,595.93,260.29,611.66,290.83,612.69Z" transform="translate(-0.36)"/><path class="d" d="M354.75,766.84s-19.07-15.16-60.63-2.27C294.12,764.57,322.21,779.75,354.75,766.84Z" transform="translate(-0.36)"/><path class="e" d="M554.61,951.51c158.35,0,287.49-8.88,287.49-19.76S713,912,554.61,912s-287.49,8.87-287.49,19.75S396.26,951.51,554.61,951.51Z" transform="translate(-0.36)"/><path class="c" d="M738.16,289.8V879.25a52.51,52.51,0,0,1-52.49,52.51H426.43a52.51,52.51,0,0,1-52.51-52.49h0V289.8a52.52,52.52,0,0,1,52.51-52.51H685.67A52.53,52.53,0,0,1,738.16,289.8Z" transform="translate(-0.36)"/><path class="f" d="M410.52,251.51h291a22.36,22.36,0,0,1,22.35,22.36h0V895.16a22.36,22.36,0,0,1-22.32,22.35h-291a22.36,22.36,0,0,1-22.36-22.36V273.9a22.36,22.36,0,0,1,22.33-22.39Z" transform="translate(-0.36)"/><ellipse class="g" cx="552.94" cy="804.89" rx="101.98" ry="17.95"/><path class="h" d="M741.21,483.79h-3.06V344.71h3.06a6.88,6.88,0,0,1,6.88,6.88h0v125.3a6.88,6.88,0,0,1-6.86,6.9h0Z" transform="translate(-0.36)"/><path class="h" d="M373.92,410h-2.84a6.39,6.39,0,0,1-6.4-6.38h0V348.75a6.39,6.39,0,0,1,6.38-6.4h2.85Z" transform="translate(-0.36)"/><path class="h" d="M373.92,483.79h-2.48a5.57,5.57,0,0,1-5.57-5.57h0V447.74a5.57,5.57,0,0,1,5.56-5.58h2.49Z" transform="translate(-0.36)"/><path class="c" d="M470.07,237.29H642.24V262a24.79,24.79,0,0,1-24.72,24.72H494.79A24.79,24.79,0,0,1,470.07,262Z" transform="translate(-0.36)"/><path class="i" d="M519.41,262a6,6,0,1,1-6-6h0A6,6,0,0,1,519.41,262Z" transform="translate(-0.36)"/><rect class="j" x="524.34" y="257.63" width="80.16" height="8.77" rx="1.78"/><path class="k" d="M357.19,467.27c6-3,14.64,3.07,19.3,13.57,3.44.75,5.79,5.86,5.35,12-.36,5.08-2.53,9.39-5.28,11.06A7.89,7.89,0,0,1,374,506c-6.09,3-14.79-3.18-19.43-13.86S351.1,470.3,357.19,467.27Z" transform="translate(-0.36)"/><path class="k" d="M726,544c-6-3-14.64,3.07-19.3,13.57-3.44.74-5.79,5.85-5.35,12,.36,5.09,2.53,9.39,5.28,11.06a7.87,7.87,0,0,0,2.56,2.06c6.09,3,14.79-3.18,19.43-13.86S732.06,547.06,726,544Z" transform="translate(-0.36)"/><path class="h" d="M538,575.86l-43.67,6.19c-55.44,7.87-94.52-26.94-112.85-83.7a22,22,0,0,1-18.47,6c8.81,72,50.22,113.4,122.75,128.9,1.81,56.39,4.86,117.36,3.49,172.78a318.22,318.22,0,0,0,122.53,3c-4.7-56.3-3.58-105.61,1.63-160.17,18.69,18.77,53.07,41.28,65.17,39.06,21.4-3.92,32.85-57.65,39.59-106.14-8-.72-13.48-4.9-16.8-12.18-8.32,27.09-18,49.65-28.54,75.06-38.74-25.38-53.2-48.39-97.22-70.89Z" transform="translate(-0.36)"/><path class="k" d="M537.35,554.28h38.21v19.48c10.62,10.39,5.06,18.37-10.1,17.58-12.91-.67-28.1-5.16-28.1-20.45Z" transform="translate(-0.36)"/><path class="l" d="M537.35,554.28h38.21V564l-32.3,20.25a16.82,16.82,0,0,1-5.9-13.38Z" transform="translate(-0.36)"/><path class="i" d="M590.76,479.6l-53.41,74.68.49,8.25c-14.8-20.66-30.15-24.82-36.81-46.9-8.78-29.07-1.38-54,24.41-63.32,7.63-2.74,16.67,2.68,23.91-1.2,18.62-10,26.71-6.11,28.35.87,2.72,11.6,22-5,27.71,6S604.26,477.66,590.76,479.6Z" transform="translate(-0.36)"/><path class="k" d="M554.44,484.45a66.52,66.52,0,0,0,36.32-4.84c18.78,31.58,19.46,75.95-13.89,84.46-18.46,4.71-43.27-2.36-46.24-24.73-13.13-1.32-18.93-22.63-11.9-28.17,7.38-5.82,12.46,5.08,13.63,11.38l3.22-.95-1.72-17A41.16,41.16,0,0,0,554.44,484.45Z" transform="translate(-0.36)"/><path class="l" d="M554.44,484.45a66.52,66.52,0,0,0,36.32-4.84,55.35,55.35,0,0,1-35.09,16.9c-15.58,26-7.92,57,26.73,65.67a37.6,37.6,0,0,1-5.54,1.87c-18.45,4.71-43.26-2.36-46.24-24.73-13.13-1.32-18.92-22.63-11.89-28.17,7.38-5.82,12.45,5.08,13.62,11.38l3.23-.95-1.72-17A41.12,41.12,0,0,0,554.44,484.45Z" transform="translate(-0.36)"/><path class="m" d="M706.53,548.28,720.74,545l5.31,23.18a3.41,3.41,0,0,1-2.56,4.09h0L715.92,574a3.41,3.41,0,0,1-4.09-2.56h0Z" transform="translate(-0.36)"/><path class="n" d="M692.44,500.19c32.43-5.07,59.81-13.83,75.28-34.1l31.86,72.14-21.37,25.93c-30.35-19-52.4-17.77-80.34-15.11-13.33,1.28-25.36-7.74-26.83-21h0a24.65,24.65,0,0,1,2.24-13.29h0l.21-.45v-.06a24.69,24.69,0,0,1,1.55-2.69h0l.27-.39v-.08c.09-.13.18-.24.26-.37v-.07l.28-.38h0l.29-.39.05-.06c.41-.52.84-1,1.29-1.52v-.05l.27-.28.13-.14.24-.25.16-.16.23-.23.16-.15.25-.23.16-.15.25-.23.13-.11.29-.25c.13-.12.27-.23.41-.34l.25-.21.18-.14.26-.19.2-.16.25-.19.19-.13.27-.19.21-.15.23-.15.28-.19.19-.12.3-.19.19-.11.32-.19.16-.1h0l.14-.07.36-.21.16-.08.33-.18.22-.11.3-.15.22-.1.3-.14.23-.11.31-.13.21-.1.36-.14.17-.07.39-.15.16-.06h0l.51-.19h0l.21-.07.34-.11.23-.07.33-.1.24-.06.32-.09.24-.06.37-.09.19-.05.4-.09h.18l.4-.07h.2Z" transform="translate(-0.36)"/><path class="o" d="M692.44,500.19c32.43-5.07,59.81-13.83,75.28-34.1-8.4,25.13-11.07,50.27-7.14,75.39-20.54-4.32-41.08-4.27-61.62-1.74l-15.1-36.53.1-.06.37-.2.16-.08.33-.18.21-.11.31-.15.21-.1.3-.15.23-.1.32-.13.21-.1.35-.14.17-.07a2.74,2.74,0,0,1,.4-.15l.16-.07h0l.51-.18h0l.21-.07.34-.11L689,501l.34-.1.24-.07.32-.08.24-.07.36-.08h.2l.4-.09h.18l.4-.08h.2Z" transform="translate(-0.36)"/><path class="h" d="M692.44,500.2l5.25-.86a113.81,113.81,0,0,0-.37,29.73,123.18,123.18,0,0,0,3.78,19.68l-3.23.31c-13.33,1.27-25.36-7.75-26.83-21.06h0A25.63,25.63,0,0,1,692.44,500.2Z" transform="translate(-0.36)"/><path class="o" d="M797.88,427.44c23.22-2.58,46.24,33.14,51.42,79.77s-9.45,86.54-32.67,89.11-46.24-33.14-51.42-79.78S774.67,430,797.88,427.44Z" transform="translate(-0.36)"/><path class="n" d="M798.47,432.65c20.34-2.26,40.76,31.39,45.62,75.14s-7.7,81.06-28,83.32S775.33,559.73,770.47,516,778.13,434.91,798.47,432.65Z" transform="translate(-0.36)"/><ellipse class="p" cx="807.24" cy="511.97" rx="33.6" ry="74.02" transform="translate(-51.89 92.12) rotate(-6.33)"/><path class="q" d="M792.88,571.78c-9.19-12.63-16.42-32.87-19-56.19a146.37,146.37,0,0,1,.56-38.44c10.53-.26,21.34,21,24.36,48.18C801,545.21,798.45,562.9,792.88,571.78Z" transform="translate(-0.36)"/><path class="r" d="M796.67,507.25l-23.76-5.92c.1,4.64.41,9.4,1,14.25a160,160,0,0,0,3.22,18.83l21.81-8Z" transform="translate(-0.36)"/><path class="i" d="M774.51,520.59l23.29-3.76,1.11,9.58-21.82,8C776.05,530,775.18,525.36,774.51,520.59Z" transform="translate(-0.36)"/><path class="n" d="M796.67,507.25c2.7-.3,5.35,3.75,5.94,9s-1.12,9.83-3.81,10.13-5.34-3.76-5.93-9S794,507.51,796.67,507.25Z" transform="translate(-0.36)"/><path class="i" d="M700.18,498.89a113.82,113.82,0,0,0-.4,29.9,124,124,0,0,0,3.8,19.74l-2.48.22a123.18,123.18,0,0,1-3.78-19.68,113.89,113.89,0,0,1,.37-29.74Z" transform="translate(-0.36)"/><path class="o" d="M361.67,395.76l21.49,29.75a47.39,47.39,0,1,1-76.29,56.25h0l-.5-.7h0L284.84,451.3l18.24-13.19,21.53,29.75a25,25,0,0,0,34.74,5.58h0a25,25,0,0,0,5.58-34.75L343.4,408.94Z" transform="translate(-0.36)"/><rect class="j" x="275.87" y="422.88" width="22.5" height="24.87" transform="translate(-201.01 250.88) rotate(-35.88)"/><path class="s" d="M285.22,452.31l-.17-.23L270.3,431.7l.23-.17L289,418.17l.16.23,14.76,20.39-.23.16Zm-14.13-20.49,14.25,19.7,17.78-12.86L288.87,419Z" transform="translate(-0.36)"/><rect class="j" x="335.63" y="375.82" width="22.56" height="24.93" transform="translate(-162.47 278.69) rotate(-36.07)"/><path class="o" d="M863,467.39l2.1,5.26,51.17-18.79-7-15.42Z" transform="translate(-0.36)"/><path class="o" d="M867.87,503.63l.7,9.81,77.1,11.22-1.06-22.78Z" transform="translate(-0.36)"/><path class="o" d="M864.36,541.82l-3.15,7.36,40,34.7,7.36-12.27Z" transform="translate(-0.36)"/><rect class="t" x="195.33" y="549.44" width="134.94" height="125.69" rx="18.21"/><path class="u" d="M224.15,576.64h78a5.85,5.85,0,0,1,5.85,5.85h0v59.57a5.85,5.85,0,0,1-5.84,5.86h-78a5.86,5.86,0,0,1-5.86-5.86V582.51a5.85,5.85,0,0,1,5.83-5.87h0Z" transform="translate(-0.36)"/><path class="o" d="M263.16,616.93,225.67,584l37.51,23.82L300.68,584Z" transform="translate(-0.36)"/><circle class="t" cx="765.03" cy="298.02" r="55.93"/><path class="v" d="M776,279.13l-24.9,11.38c-.38-.2-.79-.58-1.18-.83a10.66,10.66,0,1,0-2.8,19.15,11.26,11.26,0,0,0,2.71-1.24,13.23,13.23,0,0,0,1.13-.84,11.77,11.77,0,0,1,1.12-1c.78.38,1.55.79,2.29,1.24,6.75,3.79,13.87,7.55,20.62,11.27,1.55.86.94.37,1.42,2.09A10.67,10.67,0,1,0,787,306.83a10.55,10.55,0,0,0-7.68,2.94,17,17,0,0,0-1.64,1.94c-.47-.08-16-8.71-17.18-9.34l-5.75-3.12-.09-2.74c4-1.82,7.93-3.64,12-5.46.73-.32,11.56-5.33,12-5.4a10.8,10.8,0,0,0,6,3.41,10.66,10.66,0,0,0,12-6.67,10.94,10.94,0,0,0-.18-8,10.68,10.68,0,0,0-20.33,2.48C776,277.68,776.09,278.36,776,279.13Z" transform="translate(-0.36)"/><path class="o" d="M242.06,285.72H386.82c17.4,0,31.5-13.76,31.5-30.74s-14.1-30.74-31.5-30.74a31.9,31.9,0,0,0-17.26,5,30.49,30.49,0,0,0-50.65-29.73,24.95,24.95,0,1,0-47.24,15.2h-1.52a22.2,22.2,0,0,0-21.3,28.79,21.67,21.67,0,0,0-13.55,41.17l.1,0a21.43,21.43,0,0,0,6.69,1.07Z" transform="translate(-0.36)"/><rect class="w" x="442.73" y="352.1" width="248.9" height="10.73" rx="3.13"/><path class="w" d="M446.22,382.13H688.85a3.14,3.14,0,0,1,3.13,3.14v4.45a3.13,3.13,0,0,1-3.12,3.14H446.22a3.13,3.13,0,0,1-3.13-3.13h0v-4.46a3.14,3.14,0,0,1,3.13-3.14Z" transform="translate(-0.36)"/><rect class="w" x="442.73" y="412.16" width="248.9" height="10.73" rx="3.13"/><rect class="x" x="419.73" y="352.1" width="13.6" height="10.73" rx="3.13"/><path class="x" d="M423.22,382.13h7.34a3.14,3.14,0,0,1,3.13,3.14h0v4.45a3.14,3.14,0,0,1-3.13,3.14h-7.34a3.13,3.13,0,0,1-3.13-3.13h0v-4.46a3.13,3.13,0,0,1,3.12-3.14h0Z" transform="translate(-0.36)"/><rect class="x" x="419.73" y="412.16" width="13.6" height="10.73" rx="3.13"/><rect class="w" x="442.73" y="845.81" width="248.9" height="10.73" rx="3.13"/><rect class="w" x="442.73" y="875.84" width="248.9" height="10.73" rx="3.13"/><rect class="x" x="419.73" y="845.81" width="13.6" height="10.73" rx="3.13"/><rect class="x" x="419.73" y="875.84" width="13.6" height="10.73" rx="3.13"/><rect class="t" x="674.42" y="742.32" width="211.88" height="145.54" rx="12.56"/><path class="v" d="M752.18,788.34l57.08,26.75-57.08,26.76Z" transform="translate(-0.36)"/><path class="o" d="M269.52,776.51h30.69l7.86-13c1.08-1.8,2-3.82,5.93-3.82h30.58c4,0,4.85,2,5.93,3.82l7.86,13h30.7a11.41,11.41,0,0,1,11.37,11.37v77.75A11.41,11.41,0,0,1,389.07,877H269.52a11.41,11.41,0,0,1-11.37-11.37V787.91A11.41,11.41,0,0,1,269.52,776.51Z" transform="translate(-0.36)"/><path class="v" d="M329.29,859.67a28.4,28.4,0,1,0-28.39-28.41h0A28.43,28.43,0,0,0,329.29,859.67Z" transform="translate(-0.36)"/><path class="o" d="M173.24,406.92a29.92,29.92,0,0,1,44.36,39.72l13.56,14.78a4.15,4.15,0,0,1-.26,5.85l-2.48,2.28a4.14,4.14,0,0,1-5.85-.26h0L209,454.51a29.92,29.92,0,0,1-35.76-47.6Zm7.68,8.37a18.56,18.56,0,1,0,26.23,1.12,18.55,18.55,0,0,0-26.23-1.12Z" transform="translate(-0.36)"/></svg>