<svg xmlns="http://www.w3.org/2000/svg" viewBox="0 0 514.33 143.79"><defs><style>.a{fill:#fff;}</style></defs><path class="a" d="M186.44,232.13c18.67-.68,37.3-.42,55.81,2.57a194.29,194.29,0,0,1,54.62,19c14,8.5,26.95,18.3,37.5,31a98.36,98.36,0,0,1,9,12.53c3.46,5.82,2.76,10.86-1.83,13.48s-8.6.8-12.29-4.82c-17-25.82-41.19-41.4-70.46-49.84a62.92,62.92,0,0,0-16.49-4,158.8,158.8,0,0,0-46-3.3A75.24,75.24,0,0,0,178,250.13c-40.83,5.42-75.68,21.24-99,57-2.94,4.5-7.44,5.9-11.52,3.58s-5.39-7.1-2.81-11.73,5-9.69,8.8-13.72c.66-.48,23.2-22,35.88-29.77,4.27-2.23,8.48-4.57,12.81-6.68,14.75-7.19,30.5-11.2,46.46-14.51Z" transform="translate(-63.34 -168.1)"/><path class="a" d="M437.15,295.27c4.17,0,8.34-.2,12.49.06a8.11,8.11,0,0,1,7.88,8.1c.06,4.19-2.88,8.14-7.16,8.19-12.79.15-25.64,1.21-38.25-2.19-35.5-9.59-57.47-42.91-52.67-80,4.48-34.54,35.43-61.15,71.21-61.21h15.49q11.25,0,11.38,8.14c.07,5.55-3.9,8.31-11.65,8.45-8.8.17-17.64-.73-26.4,1-27.62,5.62-46.24,30.64-44.05,59.28,2.07,27,25.15,48.95,52.74,50,3,.12,6,0,9,0Zm-194.84,6.21c0,6.53,3.07,10.3,8.22,10.31s8.21-3.77,8.23-10.3q.08-22.73.07-45.46a62.92,62.92,0,0,0-16.49-4C242.33,268.51,242.29,285,242.31,301.48Zm63-48.14a42.58,42.58,0,0,0-2.19-85.11c-16.8-.09-33.61,0-50.41,0-7.71,0-10.41,2.75-10.42,10.59q-.06,27.94-.06,55.89a194.29,194.29,0,0,1,54.62,19C299.69,253.57,302.51,253.5,305.33,253.34Zm-46.61-65.16c0-2.56.72-3.47,3.38-3.45,14.16.12,28.33-.21,42.48.18,14,.37,24.94,12.4,24.69,26.34a26.07,26.07,0,0,1-25.53,25.61c-13.66.17-27.32-.09-41,.13-3.52,0-4.13-1.25-4.05-4.33.19-7.33.06-14.66.06-22C258.77,203.17,258.86,195.68,258.72,188.18ZM153.38,174.64c-5-8.68-11.92-8.72-16.91-.11C115.39,210.93,85.75,262.6,64.66,299c0,0,32-35.71,44.68-43.49L145.27,192c7.8,13.59,15.57,28.74,23.34,42.29l17.83-2.17Q169.91,203.39,153.38,174.64ZM205.1,297.3c2.07,3.61,4,7.29,6.31,10.75a8.05,8.05,0,0,0,11,2.61c3.77-2.2,5.09-6.64,3.17-10.85-.62-1.36-1.44-2.63-2.18-3.93l-27.06-47.16A75.24,75.24,0,0,0,178,250.13Q191.57,273.71,205.1,297.3Zm361.95,3c7-6.69,10.62-15.65,10.61-26.65l0-.63c-2.14-26.64-33.08-36-46.29-40l-.14,0c-1.17-.35-2.16-.65-2.94-.91-.94-.32-2.16-.69-3.59-1.12-9.66-2.91-32.28-9.74-34.23-24.44a6.25,6.25,0,0,1-.05-1c.16-5.87,1.91-10.33,5.35-13.62,7-6.73,19.23-6.92,20.6-6.92h52.81a8.4,8.4,0,1,0,0-16.79H516.41c-4.75,0-21.11.83-32.4,11.56-7.05,6.7-10.62,15.65-10.62,26.66l0,.62c2.14,26.64,33.08,36,46.29,40l.19.06c1.15.34,2.12.64,2.89.9.94.31,2.16.68,3.59,1.11,9.66,2.92,32.28,9.74,34.23,24.44a7.71,7.71,0,0,1,0,1c-.16,5.87-1.91,10.33-5.35,13.63-6.88,6.58-18.42,6.91-20.66,6.91H481.89a8.39,8.39,0,1,0,0,16.78h52.78C539.41,311.84,555.76,311,567.05,300.27Z" transform="translate(-63.34 -168.1)"/></svg>