<svg xmlns="http://www.w3.org/2000/svg" xmlns:xlink="http://www.w3.org/1999/xlink" viewBox="0 0 514.33 143.79"><defs><style>.a{fill:#7e76f9;}.b{fill:url(#a);}</style><linearGradient id="a" x1="257.83" y1="143.68" x2="257.83" y2="-0.11" gradientUnits="userSpaceOnUse"><stop offset="0" stop-color="#1a129f"/><stop offset="1" stop-color="#6156f9"/></linearGradient></defs><path class="a" d="M123.11,63.92c18.67-.69,37.3-.43,55.8,2.57a193.87,193.87,0,0,1,54.62,19c14,8.5,27,18.3,37.5,31a97.66,97.66,0,0,1,9,12.53c3.47,5.82,2.77,10.86-1.82,13.48s-8.6.8-12.29-4.82c-17-25.82-41.2-41.4-70.47-49.84a62.84,62.84,0,0,0-16.48-4,158.85,158.85,0,0,0-46-3.3,75.36,75.36,0,0,0-18.29,1.41c-40.83,5.42-75.67,21.24-99,57-2.94,4.5-7.44,5.9-11.52,3.58s-5.39-7.1-2.82-11.73,5-9.7,8.81-13.72c.66-.49,23.19-22,35.87-29.77,4.27-2.23,8.49-4.57,12.82-6.68,14.74-7.19,30.49-11.2,46.46-14.51Z" transform="translate(0 0.11)"/><path class="b" d="M373.82,127.06c4.16,0,8.34-.2,12.48.06a8.12,8.12,0,0,1,7.89,8.1c.05,4.19-2.89,8.14-7.17,8.19-12.78.15-25.64,1.21-38.25-2.2-35.49-9.58-57.47-42.9-52.66-80C300.58,26.67,331.53.06,367.32,0H382.8q11.26,0,11.38,8.14c.08,5.54-3.89,8.31-11.64,8.45-8.81.17-17.65-.74-26.4,1-27.63,5.63-46.25,30.65-44.05,59.29,2.07,27,25.15,49,52.74,50,3,.12,6,0,9,0ZM179,133.27c0,6.53,3.07,10.3,8.22,10.31s8.21-3.78,8.24-10.3q.06-22.73.06-45.46a62.84,62.84,0,0,0-16.48-4Q179,108.53,179,133.27Zm63-48.14A42.58,42.58,0,0,0,239.8,0C223-.07,206.2,0,189.39,0,181.68,0,179,2.75,179,10.6q-.06,27.95-.06,55.89a193.87,193.87,0,0,1,54.62,19C236.35,85.36,239.18,85.29,242,85.13ZM195.39,20c0-2.57.72-3.48,3.38-3.45,14.16.12,28.33-.21,42.48.17,14,.38,24.93,12.4,24.69,26.34a26.08,26.08,0,0,1-25.53,25.62c-13.66.17-27.33-.09-41,.13-3.52,0-4.13-1.25-4.05-4.33.18-7.33.06-14.66.06-22C195.44,35,195.52,27.46,195.39,20ZM90.05,6.43c-5-8.68-11.93-8.72-16.92-.11C52.05,42.72,22.42,94.39,1.32,130.77c0,0,32-35.71,44.68-43.49L81.93,23.79c7.81,13.6,15.57,28.75,23.35,42.3l17.83-2.17Q106.58,35.18,90.05,6.43Zm51.71,122.66c2.07,3.6,4,7.29,6.32,10.75a8,8,0,0,0,11,2.61c3.77-2.2,5.1-6.64,3.17-10.86-.62-1.35-1.43-2.62-2.18-3.92q-13.51-23.58-27-47.16a75.36,75.36,0,0,0-18.29,1.41Zm362,3c7.05-6.7,10.62-15.65,10.62-26.66l0-.62c-2.14-26.64-33.08-36-46.29-40l-.13,0c-1.17-.35-2.17-.65-2.95-.92-.94-.31-2.15-.68-3.58-1.11-9.66-2.92-32.28-9.74-34.24-24.44a6.35,6.35,0,0,1,0-1c.15-5.87,1.9-10.33,5.34-13.63,7-6.72,19.23-6.92,20.6-6.92h52.82a8.45,8.45,0,0,0,8.5-8.39A8.46,8.46,0,0,0,505.83,0H453.07c-4.75,0-21.11.84-32.4,11.57-7,6.69-10.61,15.65-10.61,26.66l0,.62c2.14,26.64,33.09,36,46.3,40l.19.06c1.14.34,2.12.64,2.89.89.94.32,2.15.69,3.58,1.12,9.66,2.91,32.28,9.74,34.23,24.43a6.44,6.44,0,0,1,.05,1c-.15,5.87-1.9,10.33-5.35,13.62-6.87,6.59-18.41,6.92-20.66,6.92H418.56a8.4,8.4,0,1,0,0,16.79h52.78C476.08,143.62,492.43,142.79,503.71,132.06Z" transform="translate(0 0.11)"/></svg>